<svg width="7" height="46" viewBox="0 0 7 46" fill="none" xmlns="http://www.w3.org/2000/svg">
    <path d="M1.66064 0.399902H3.74864C4.28198 0.399902 4.73531 0.581236 5.10864 0.943902C5.47664 1.30657 5.66064 1.7519 5.66064 2.2799C5.66064 2.8079 5.47664 3.25324 5.10864 3.6159C4.73531 3.97857 4.28198 4.1599 3.74864 4.1599H2.76464V5.9999H1.66064V0.399902ZM2.76464 3.1279H3.74864C3.98331 3.1279 4.17798 3.0479 4.33264 2.8879C4.48731 2.72257 4.56464 2.5199 4.56464 2.2799C4.56464 2.03457 4.48731 1.8319 4.33264 1.6719C4.17798 1.5119 3.98331 1.4319 3.74864 1.4319H2.76464V3.1279Z" fill="black"/>
    <path d="M5.10771 14.0239H5.70771V15.0479H5.10771V15.9999H3.99571V15.0479H1.34771V14.0239L3.21171 10.3999H4.39571L2.53971 14.0239H3.99571V12.6959H5.10771V14.0239Z" fill="black"/>
    <path d="M5.1023 20.3999H6.2383V25.9999H5.1423V22.3679L3.5663 24.9679H3.4383L1.8623 22.3759V25.9999H0.758301V20.3999H1.8943L3.5023 23.0479L5.1023 20.3999Z" fill="black"/>
    <path d="M4.72096 31.9999V32.9919H3.81696V34.6559C3.81696 34.7946 3.85162 34.8959 3.92096 34.9599C3.99029 35.0239 4.09162 35.0612 4.22496 35.0719C4.35829 35.0772 4.52362 35.0746 4.72096 35.0639V35.9999C4.02229 36.0799 3.52362 36.0159 3.22496 35.8079C2.93162 35.5946 2.78496 35.2106 2.78496 34.6559V32.9919H2.08896V31.9999H2.78496V31.1919L3.81696 30.8799V31.9999H4.72096Z" fill="black"/>
    <path d="M3.21555 41.8879C3.65822 41.8879 4.01822 42.0346 4.29555 42.3279C4.58355 42.6266 4.72755 43.0319 4.72755 43.5439V45.9999H3.69555V43.6719C3.69555 43.4106 3.62355 43.2079 3.47955 43.0639C3.34088 42.9199 3.14888 42.8479 2.90355 42.8479C2.63155 42.8479 2.41555 42.9332 2.25555 43.1039C2.10088 43.2692 2.02355 43.5146 2.02355 43.8399V45.9999H0.991551V40.3999H2.02355V42.4479C2.26888 42.0746 2.66622 41.8879 3.21555 41.8879Z" fill="black"/>
    <path d="M6.00043 42.2399H5.29643L5.16043 40.3999H6.13643L6.00043 42.2399Z" fill="black"/>
</svg>
