<svg width="9" height="146" viewBox="0 0 9 146" fill="none" xmlns="http://www.w3.org/2000/svg">
    <path d="M2.66079 0.399902H4.74879C5.28212 0.399902 5.73545 0.581236 6.10879 0.943902C6.47679 1.30657 6.66079 1.7519 6.66079 2.2799C6.66079 2.8079 6.47679 3.25324 6.10879 3.6159C5.73545 3.97857 5.28212 4.1599 4.74879 4.1599H3.76479V5.9999H2.66079V0.399902ZM3.76479 3.1279H4.74879C4.98345 3.1279 5.17812 3.0479 5.33279 2.8879C5.48745 2.72257 5.56479 2.5199 5.56479 2.2799C5.56479 2.03457 5.48745 1.8319 5.33279 1.6719C5.17812 1.5119 4.98345 1.4319 4.74879 1.4319H3.76479V3.1279Z" fill="black"/>
    <path d="M6.10785 14.0239H6.70785V15.0479H6.10785V15.9999H4.99585V15.0479H2.34785V14.0239L4.21185 10.3999H5.39585L3.53985 14.0239H4.99585V12.6959H6.10785V14.0239Z" fill="black"/>
    <path d="M6.10244 20.3999H7.23844V25.9999H6.14244V22.3679L4.56644 24.9679H4.43844L2.86244 22.3759V25.9999H1.75844V20.3999H2.89444L4.50244 23.0479L6.10244 20.3999Z" fill="black"/>
    <path d="M5.7211 31.9999V32.9919H4.8171V34.6559C4.8171 34.7946 4.85176 34.8959 4.9211 34.9599C4.99043 35.0239 5.09176 35.0612 5.2251 35.0719C5.35843 35.0772 5.52376 35.0746 5.7211 35.0639V35.9999C5.02243 36.0799 4.52376 36.0159 4.2251 35.8079C3.93176 35.5946 3.7851 35.2106 3.7851 34.6559V32.9919H3.0891V31.9999H3.7851V31.1919L4.8171 30.8799V31.9999H5.7211Z" fill="black"/>
    <path d="M4.21569 41.8879C4.65836 41.8879 5.01836 42.0346 5.29569 42.3279C5.58369 42.6266 5.72769 43.0319 5.72769 43.5439V45.9999H4.69569V43.6719C4.69569 43.4106 4.62369 43.2079 4.47969 43.0639C4.34102 42.9199 4.14902 42.8479 3.90369 42.8479C3.63169 42.8479 3.41569 42.9332 3.25569 43.1039C3.10102 43.2692 3.02369 43.5146 3.02369 43.8399V45.9999H1.99169V40.3999H3.02369V42.4479C3.26903 42.0746 3.66636 41.8879 4.21569 41.8879Z" fill="black"/>
    <path d="M7.00057 42.2399H6.29657L6.16057 40.3999H7.13657L7.00057 42.2399Z" fill="black"/>
    <path d="M4.19454 55.9999H0.450535V55.1759L2.36254 53.2079C2.7892 52.7546 3.00254 52.3812 3.00254 52.0879C3.00254 51.8692 2.9332 51.6932 2.79454 51.5599C2.6612 51.4266 2.48787 51.3599 2.27454 51.3599C1.84787 51.3599 1.53587 51.5786 1.33854 52.0159L0.410535 51.4719C0.581202 51.0932 0.829202 50.8026 1.15454 50.5999C1.4852 50.3919 1.8532 50.2879 2.25854 50.2879C2.7652 50.2879 3.19987 50.4479 3.56254 50.7679C3.9252 51.0826 4.10654 51.5092 4.10654 52.0479C4.10654 52.6292 3.79987 53.2266 3.18654 53.8399L2.09054 54.9359H4.19454V55.9999Z" fill="black"/>
    <path d="M6.04697 52.4399H6.62297C7.16697 52.4399 7.62031 52.6026 7.98297 52.9279C8.35097 53.2479 8.53497 53.6959 8.53497 54.2719C8.53497 54.8479 8.34031 55.2986 7.95097 55.6239C7.57231 55.9492 7.10031 56.1119 6.53497 56.1119C6.07631 56.1119 5.67364 56.0106 5.32697 55.8079C4.98564 55.5999 4.73764 55.3012 4.58297 54.9119L5.52697 54.3599C5.66031 54.8079 5.99631 55.0319 6.53497 55.0319C6.81764 55.0319 7.03631 54.9652 7.19097 54.8319C7.35097 54.6932 7.43097 54.5066 7.43097 54.2719C7.43097 54.0426 7.35364 53.8586 7.19897 53.7199C7.04431 53.5812 6.83364 53.5119 6.56697 53.5119H4.87097L5.09497 50.3999H8.27097V51.4319H6.11897L6.04697 52.4399Z" fill="black"/>
    <path d="M4.57838 61.9999V62.6879C4.66905 62.4372 4.82371 62.2479 5.04238 62.1199C5.26105 61.9866 5.51171 61.9199 5.79438 61.9199V63.0719C5.47971 63.0292 5.19705 63.0932 4.94638 63.2639C4.70105 63.4292 4.57838 63.7039 4.57838 64.0879V65.9999H3.54638V61.9999H4.57838Z" fill="black"/>
    <path d="M7.39266 73.1999C7.39266 73.9199 7.16333 74.5492 6.70466 75.0879L7.28066 75.6879L6.49666 76.3839L5.88866 75.7519C5.45666 75.9919 4.98733 76.1119 4.48066 76.1119C3.68066 76.1119 2.99533 75.8319 2.42466 75.2719C1.85933 74.7066 1.57666 74.0159 1.57666 73.1999C1.57666 72.3839 1.85933 71.6959 2.42466 71.1359C2.98999 70.5706 3.67533 70.2879 4.48066 70.2879C5.28599 70.2879 5.97133 70.5706 6.53666 71.1359C7.10733 71.6959 7.39266 72.3839 7.39266 73.1999ZM4.48066 75.0319C4.69399 75.0319 4.90199 74.9972 5.10466 74.9279L4.18466 73.9679L4.96866 73.2719L5.95266 74.2959C6.17666 73.9759 6.28866 73.6106 6.28866 73.1999C6.28866 72.6666 6.11533 72.2266 5.76866 71.8799C5.42199 71.5332 4.99266 71.3599 4.48066 71.3599C3.96866 71.3599 3.53933 71.5332 3.19266 71.8799C2.84599 72.2266 2.67266 72.6666 2.67266 73.1999C2.67266 73.7279 2.84599 74.1652 3.19266 74.5119C3.53933 74.8586 3.96866 75.0319 4.48066 75.0319Z" fill="black"/>
    <path d="M4.5906 84.6879L5.4786 81.9999H6.5826L5.1266 85.9999C4.9186 86.5759 4.64126 86.9919 4.2946 87.2479C3.95326 87.5092 3.5266 87.6266 3.0146 87.5999V86.6399C3.2866 86.6452 3.50526 86.5866 3.6706 86.4639C3.83593 86.3412 3.9666 86.1439 4.0626 85.8719L2.4226 81.9999H3.5506L4.5906 84.6879Z" fill="black"/>
    <path d="M5.98229 93.0959C6.47295 93.3786 6.71829 93.8052 6.71829 94.3759C6.71829 94.8506 6.55029 95.2399 6.21429 95.5439C5.87829 95.8479 5.46495 95.9999 4.97429 95.9999H2.59829V90.3999H4.80629C5.28095 90.3999 5.68362 90.5492 6.01429 90.8479C6.34495 91.1466 6.51029 91.5226 6.51029 91.9759C6.51029 92.4399 6.33429 92.8132 5.98229 93.0959ZM4.80629 91.4319H3.70229V92.6639H4.80629C4.97695 92.6639 5.11829 92.6052 5.23029 92.4879C5.34762 92.3706 5.40629 92.2239 5.40629 92.0479C5.40629 91.8719 5.35029 91.7252 5.23829 91.6079C5.12629 91.4906 4.98229 91.4319 4.80629 91.4319ZM3.70229 94.9679H4.97429C5.16095 94.9679 5.31562 94.9066 5.43829 94.7839C5.56095 94.6559 5.62229 94.4959 5.62229 94.3039C5.62229 94.1172 5.56095 93.9626 5.43829 93.8399C5.31562 93.7119 5.16095 93.6479 4.97429 93.6479H3.70229V94.9679Z" fill="black"/>
    <path d="M5.544 102.624V100.4H6.64V106H5.544V103.68H3.464V106H2.36V100.4H3.464V102.624H5.544Z" fill="black"/>
    <path d="M2.52069 116.112C1.91803 116.112 1.41402 115.909 1.00869 115.504C0.608691 115.099 0.408691 114.597 0.408691 114C0.408691 113.403 0.608691 112.901 1.00869 112.496C1.41402 112.091 1.91803 111.888 2.52069 111.888C2.91002 111.888 3.26469 111.981 3.58469 112.168C3.90469 112.355 4.14736 112.605 4.31269 112.92L3.42469 113.44C3.34469 113.275 3.22202 113.144 3.05669 113.048C2.89669 112.952 2.71536 112.904 2.51269 112.904C2.20336 112.904 1.94736 113.008 1.74469 113.216C1.54202 113.419 1.44069 113.68 1.44069 114C1.44069 114.309 1.54202 114.571 1.74469 114.784C1.94736 114.987 2.20336 115.088 2.51269 115.088C2.72069 115.088 2.90469 115.043 3.06469 114.952C3.23003 114.856 3.35269 114.725 3.43269 114.56L4.32869 115.072C4.15269 115.392 3.90202 115.645 3.57669 115.832C3.25669 116.019 2.90469 116.112 2.52069 116.112Z" fill="black"/>
    <path d="M8.67375 112.232C8.67375 112.664 8.56175 113.043 8.33775 113.368H8.34575L6.60175 116H5.33775L6.58575 114.176C6.00442 114.171 5.52975 113.987 5.16175 113.624C4.79909 113.261 4.61775 112.797 4.61775 112.232C4.61775 111.656 4.80442 111.189 5.17775 110.832C5.55642 110.469 6.04442 110.288 6.64175 110.288C7.23909 110.288 7.72709 110.469 8.10575 110.832C8.48442 111.195 8.67375 111.661 8.67375 112.232ZM5.71375 112.232C5.71375 112.504 5.80175 112.725 5.97775 112.896C6.15375 113.061 6.37509 113.144 6.64175 113.144C6.91909 113.144 7.14309 113.061 7.31375 112.896C7.48975 112.725 7.57775 112.504 7.57775 112.232C7.57775 111.96 7.48975 111.741 7.31375 111.576C7.14309 111.411 6.91909 111.328 6.64175 111.328C6.37509 111.328 6.15375 111.413 5.97775 111.584C5.80175 111.749 5.71375 111.965 5.71375 112.232Z" fill="black"/>
    <path d="M6.32604 127.368H2.68604V126.376H6.32604V127.368Z" fill="black"/>
    <path d="M4.78322 133.12L6.93522 136H5.66322L3.66322 133.376V136H2.55922V130.4H3.66322V132.872L5.58322 130.4H6.85522L4.78322 133.12Z" fill="black"/>
    <path d="M6.82713 146H5.63513L4.50713 144.056H3.66713V146H2.56313V140.4H4.80313C5.32046 140.4 5.76046 140.581 6.12313 140.944C6.4858 141.307 6.66713 141.744 6.66713 142.256C6.66713 142.603 6.56846 142.925 6.37113 143.224C6.1738 143.517 5.91246 143.739 5.58713 143.888L6.82713 146ZM4.80313 141.432H3.66713V143.088H4.80313C5.01113 143.088 5.1898 143.008 5.33913 142.848C5.48846 142.683 5.56313 142.485 5.56313 142.256C5.56313 142.027 5.48846 141.832 5.33913 141.672C5.1898 141.512 5.01113 141.432 4.80313 141.432Z" fill="black"/>
</svg>
